<svg width="34" height="34" viewBox="0 0 34 34" fill="none" xmlns="http://www.w3.org/2000/svg">
<g clip-path="url(#clip0)">
<path d="M29.3999 14.0004C29.3999 23.8004 16.7999 32.2004 16.7999 32.2004C16.7999 32.2004 4.19995 23.8004 4.19995 14.0004C4.19995 10.6587 5.52745 7.4538 7.89041 5.09084C10.2534 2.72789 13.4582 1.40039 16.7999 1.40039C20.1417 1.40039 23.3465 2.72789 25.7095 5.09084C28.0725 7.4538 29.3999 10.6587 29.3999 14.0004Z" stroke="#FFBC00" stroke-width="2" stroke-linecap="round" stroke-linejoin="round"/>
<path d="M16.8001 18.2003C19.1197 18.2003 21.0001 16.3199 21.0001 14.0003C21.0001 11.6807 19.1197 9.80029 16.8001 9.80029C14.4805 9.80029 12.6001 11.6807 12.6001 14.0003C12.6001 16.3199 14.4805 18.2003 16.8001 18.2003Z" stroke="#FFBC00" stroke-width="2" stroke-linecap="round" stroke-linejoin="round"/>
</g>
<defs>
<clipPath id="clip0">
<rect width="33.6" height="33.6" fill="white" transform="translate(0 0.000488281)"/>
</clipPath>
</defs>
</svg>
