<svg width="34" height="34" viewBox="0 0 34 34" fill="none" xmlns="http://www.w3.org/2000/svg">
<path d="M30.8001 23.6879V27.8879C30.8017 28.2778 30.7219 28.6638 30.5657 29.021C30.4095 29.3783 30.1804 29.699 29.8931 29.9625C29.6057 30.2261 29.2665 30.4268 28.8972 30.5517C28.5278 30.6766 28.1365 30.723 27.7481 30.6879C23.4401 30.2198 19.3019 28.7477 15.6661 26.3899C12.2835 24.2405 9.41562 21.3726 7.26615 17.9899C4.90012 14.3376 3.42769 10.1793 2.96815 5.85194C2.93317 5.46479 2.97918 5.0746 3.10325 4.70621C3.22733 4.33782 3.42675 3.99931 3.68882 3.71221C3.9509 3.42511 4.26988 3.19573 4.62546 3.03867C4.98104 2.88161 5.36543 2.80031 5.75415 2.79994H9.95415C10.6336 2.79325 11.2923 3.03385 11.8074 3.47689C12.3226 3.91992 12.6591 4.53517 12.7541 5.20794C12.9314 6.55203 13.2602 7.87176 13.7341 9.14194C13.9225 9.64303 13.9633 10.1876 13.8516 10.7112C13.74 11.2347 13.4806 11.7153 13.1041 12.0959L11.3261 13.8739C13.3191 17.3789 16.2212 20.281 19.7261 22.2739L21.5041 20.4959C21.8848 20.1195 22.3654 19.8601 22.8889 19.7485C23.4125 19.6368 23.9571 19.6776 24.4581 19.8659C25.7283 20.3399 27.0481 20.6687 28.3921 20.8459C29.0722 20.9419 29.6933 21.2844 30.1373 21.8084C30.5813 22.3324 30.8172 23.0013 30.8001 23.6879Z" stroke="#FFBC00" stroke-width="2" stroke-linecap="round" stroke-linejoin="round"/>
</svg>
