<svg width="25" height="27" viewBox="0 0 25 27" fill="none" xmlns="http://www.w3.org/2000/svg">
<path d="M0.491065 0.425778C0.150411 0.836166 -0.0215314 1.36153 0.01029 1.89479V25.1052C-0.0215314 25.6385 0.150411 26.1638 0.491065 26.5742L0.564226 26.6477L13.5138 13.6574V13.3531L0.564226 0.352325L0.491065 0.425778Z" fill="url(#paint0_linear)"/>
<path d="M17.799 17.991L13.5139 13.6574V13.3531L17.799 9.009L17.8931 9.06147L23.0248 11.989C24.4881 12.8179 24.4881 14.182 23.0248 15.0215L17.914 17.9385L17.799 17.991Z" fill="url(#paint1_linear)"/>
<path d="M17.9247 17.928L13.5141 13.5L0.491425 26.5742C0.789674 26.8374 1.17014 26.9878 1.56708 26.9993C1.96402 27.0108 2.35249 26.8827 2.66536 26.6372L17.9352 17.928" fill="url(#paint2_linear)"/>
<path d="M17.9247 9.07197L2.65489 0.362816C2.34203 0.117295 1.95356 -0.0107838 1.55662 0.000711635C1.15968 0.0122071 0.779207 0.162556 0.480957 0.425775L13.5141 13.5L17.9247 9.07197Z" fill="url(#paint3_linear)"/>
<path opacity="0.2" d="M17.7993 17.8336L2.65491 26.4903C2.35316 26.7168 1.98651 26.8392 1.60975 26.8392C1.23298 26.8392 0.866334 26.7168 0.564586 26.4903L0.491425 26.5638L0.564586 26.6372C0.86565 26.8653 1.23256 26.9887 1.60975 26.9887C1.98693 26.9887 2.35384 26.8653 2.65491 26.6372L17.9247 17.9281L17.7993 17.8336Z" fill="black"/>
<path opacity="0.12" d="M0.491065 26.4273C0.150411 26.0169 -0.0215314 25.4916 0.01029 24.9583V25.1157C-0.0215314 25.649 0.150411 26.1743 0.491065 26.5847L0.564226 26.5113L0.491065 26.4273ZM23.0247 14.8641L17.7989 17.8336L17.893 17.928L23.0247 15.011C23.3159 14.8737 23.5659 14.6617 23.7494 14.3964C23.9329 14.1311 24.0434 13.8219 24.0699 13.5C24.0111 13.7924 23.8864 14.0675 23.7052 14.3039C23.524 14.5404 23.2912 14.732 23.0247 14.8641Z" fill="black"/>
<path opacity="0.25" d="M2.65471 0.509025L23.0249 12.1352C23.2914 12.2673 23.5242 12.4589 23.7053 12.6954C23.8865 12.9318 24.0113 13.2069 24.0701 13.4993C24.0436 13.1774 23.933 12.8682 23.7495 12.6029C23.566 12.3377 23.3161 12.1256 23.0249 11.9883L2.65471 0.362122C1.19149 -0.466822 0 0.225714 0 1.90459V2.06198C0.0313548 0.372616 1.20194 -0.319919 2.65471 0.509025Z" fill="white"/>
<defs>
<linearGradient id="paint0_linear" x1="12.3641" y1="1.65345" x2="-5.24295" y2="19.1911" gradientUnits="userSpaceOnUse">
<stop stop-color="#00A0FF"/>
<stop offset="0.01" stop-color="#00A1FF"/>
<stop offset="0.26" stop-color="#00BEFF"/>
<stop offset="0.51" stop-color="#00D2FF"/>
<stop offset="0.76" stop-color="#00DFFF"/>
<stop offset="1" stop-color="#00E3FF"/>
</linearGradient>
<linearGradient id="paint1_linear" x1="24.9375" y1="13.5" x2="-0.344987" y2="13.5" gradientUnits="userSpaceOnUse">
<stop stop-color="#FFE000"/>
<stop offset="0.41" stop-color="#FFBD00"/>
<stop offset="0.78" stop-color="#FFA500"/>
<stop offset="1" stop-color="#FF9C00"/>
</linearGradient>
<linearGradient id="paint2_linear" x1="15.5313" y1="15.9134" x2="-8.35044" y2="39.6906" gradientUnits="userSpaceOnUse">
<stop stop-color="#FF3A44"/>
<stop offset="1" stop-color="#C31162"/>
</linearGradient>
<linearGradient id="paint3_linear" x1="-2.7904" y1="-7.29704" x2="7.87036" y2="3.32172" gradientUnits="userSpaceOnUse">
<stop stop-color="#32A071"/>
<stop offset="0.07" stop-color="#2DA771"/>
<stop offset="0.48" stop-color="#15CF74"/>
<stop offset="0.8" stop-color="#06E775"/>
<stop offset="1" stop-color="#00F076"/>
</linearGradient>
</defs>
</svg>
