<svg width="56" height="56" viewBox="0 0 56 56" fill="none" xmlns="http://www.w3.org/2000/svg">
<circle cx="28" cy="28" r="25" fill="#FFBC00"/>
<path d="M53.564 30.068C53.2807 29.7892 53.0919 29.4174 53.1391 28.9992C53.1391 28.6739 53.1391 28.3485 53.1391 28.0232C53.1391 27.6979 53.1391 27.3726 53.1391 27.0008C53.1391 26.629 53.2807 26.2108 53.564 25.932L55.5468 24.1195C55.8773 23.7942 56.0661 23.3295 55.9717 22.8647L55.9245 22.7253C55.6884 21.61 55.4052 20.4481 55.0275 19.3328C54.6498 18.2174 54.2249 17.1485 53.7056 16.0797L53.6584 15.9402C53.4696 15.522 53.0447 15.1967 52.5726 15.1502L49.8816 14.8714C49.504 14.8249 49.1263 14.5925 48.8902 14.2672C48.5126 13.7095 48.1349 13.1519 47.71 12.6407C47.4739 12.3154 47.3795 11.9436 47.4267 11.5253L47.946 8.92282C48.0405 8.45809 47.8988 7.99336 47.5212 7.66805L47.4267 7.5751C46.577 6.78506 45.6328 6.04149 44.6886 5.3444C43.7444 4.6473 42.753 4.04315 41.7144 3.48548L41.5728 3.39253C41.1479 3.16017 40.6286 3.16017 40.2037 3.39253L37.8432 4.69378C37.5127 4.87967 37.0878 4.92614 36.7102 4.78672C36.0964 4.55436 35.4355 4.36846 34.7746 4.18257C34.3969 4.08963 34.0664 3.81079 33.8776 3.439L32.7446 1.02241C32.5557 0.604149 32.1308 0.278838 31.6587 0.232365H31.5171C30.3369 0.0929461 29.1566 0 27.9764 0C26.7962 0 25.6159 0.0929461 24.4357 0.232365H24.294C23.822 0.278838 23.3971 0.604149 23.2082 1.02241L22.0752 3.439C21.8864 3.81079 21.6031 4.08963 21.1782 4.18257C20.5173 4.36846 19.8563 4.55436 19.2426 4.78672C18.8649 4.92614 18.4401 4.87967 18.1096 4.69378L15.7491 3.39253C15.3242 3.16017 14.8049 3.16017 14.38 3.39253L14.2384 3.48548C13.1998 4.04315 12.2084 4.69378 11.2642 5.3444C10.32 6.04149 9.37582 6.78506 8.52605 7.5751L8.43163 7.66805C8.10116 7.99336 7.91233 8.45809 8.00674 8.92282L8.52605 11.5253C8.62047 11.8971 8.52605 12.3154 8.24279 12.6407C7.8179 13.1519 7.44023 13.7095 7.06255 14.2672C6.8265 14.5925 6.49604 14.8249 6.07115 14.8714L3.38021 15.1502C2.90811 15.1967 2.48322 15.4755 2.29439 15.9402L2.24718 16.0797C1.72787 17.1485 1.30298 18.2174 0.972517 19.3328C0.594841 20.4481 0.311583 21.5635 0.0755353 22.7253L0.0283257 22.8647C-0.0660934 23.3295 0.0755353 23.7942 0.453212 24.1195L2.43601 25.932C2.71927 26.2108 2.90811 26.5826 2.8609 27.0008C2.8609 27.3261 2.8609 27.6515 2.8609 28.0232C2.8609 28.3485 2.8609 28.6739 2.8609 28.9992C2.8609 29.4174 2.71927 29.7892 2.43601 30.068L0.500422 31.8805C0.122745 32.2058 -0.0188838 32.6705 0.0755353 33.1353L0.122745 33.2747C0.311583 34.39 0.594841 35.5519 0.972517 36.6672C1.35019 37.7826 1.77508 38.8515 2.24718 39.9203L2.29439 40.0597C2.48322 40.478 2.90811 40.8033 3.38021 40.8498L6.07115 41.1286C6.44883 41.1751 6.8265 41.4075 7.06255 41.7328C7.44023 42.2905 7.8179 42.8481 8.24279 43.3593C8.47884 43.6847 8.57326 44.0564 8.52605 44.4747L8.00674 47.0772C7.91233 47.5419 8.05395 48.0066 8.43163 48.332L8.52605 48.4249C9.37582 49.2149 10.32 49.9585 11.2642 50.6556C12.2084 51.3527 13.247 51.9568 14.2384 52.5145L14.38 52.6075C14.8049 52.8398 15.3242 52.8398 15.7491 52.6075L18.1096 51.3062C18.4401 51.1203 18.8649 51.0739 19.2426 51.2133C19.8563 51.4456 20.5173 51.6315 21.1782 51.8174C21.5559 51.9104 21.8864 52.1892 22.0752 52.561L23.2082 54.9776C23.3971 55.3959 23.822 55.7212 24.294 55.7676H24.4357C25.6159 55.9071 26.7962 56 27.9764 56C29.1566 56 30.3369 55.9535 31.5171 55.7676H31.6587C32.1308 55.7212 32.5557 55.3959 32.7446 54.9776L33.8776 52.561C34.0664 52.1892 34.3497 51.9104 34.7746 51.8174C35.4355 51.6315 36.0964 51.4456 36.7102 51.2133C37.0878 51.0739 37.5127 51.1203 37.8432 51.3062L40.2037 52.6075C40.6286 52.8398 41.1479 52.8398 41.5728 52.6075L41.7144 52.5145C42.753 51.9568 43.7444 51.3062 44.6886 50.6556C45.6328 49.9585 46.577 49.2149 47.4267 48.4249L47.5212 48.332C47.8516 48.0066 48.0405 47.5419 47.946 47.0772L47.4267 44.4747C47.3323 44.1029 47.4267 43.6847 47.71 43.3593C48.1349 42.8481 48.5126 42.2905 48.8902 41.7328C49.1263 41.4075 49.4568 41.1751 49.8816 41.1286L52.5726 40.8498C53.0447 40.8033 53.4696 40.5245 53.6584 40.0597L53.7056 39.9203C54.2249 38.8515 54.6498 37.7826 55.0275 36.6672C55.4052 35.5519 55.6884 34.4365 55.9245 33.2747L55.9717 33.1353C56.0661 32.6705 55.9245 32.2058 55.5468 31.8805L53.564 30.068ZM49.6928 25.8855C49.74 26.5826 49.7872 27.3261 49.7872 28.0232C49.7872 28.7203 49.74 29.4174 49.6928 30.161V30.3004C49.6456 30.7187 49.8344 31.1369 50.1177 31.4158L51.8644 32.9959C52.2421 33.3212 52.1416 34.0353 52 34.5C51.9056 34.9183 51.6416 35.0817 51.5 35.5C51.3584 35.9183 51.1888 36.5817 51 37C50.8112 37.4647 50.7786 37.6896 50.2593 37.7361L47.8988 38.0149C47.4739 38.0614 47.0963 38.2938 46.8602 38.6656L46.813 38.7585C46.1049 39.9668 45.2551 41.1286 44.2637 42.1975L44.1693 42.2905C43.886 42.6158 43.7444 43.034 43.8388 43.4523L44.3109 45.7759C44.4053 46.2871 44.2165 46.7983 43.8388 47.1237C43.5083 47.4025 43.1307 47.6813 42.753 47.9602C42.3753 48.239 41.9976 48.4714 41.62 48.7037C41.1951 48.9826 40.6286 48.9826 40.2037 48.7502L38.1264 47.5884C37.7488 47.356 37.2767 47.356 36.899 47.5419C35.4827 48.1461 34.0192 48.6108 32.5085 48.9361C32.0836 49.0291 31.7059 49.3079 31.5643 49.6797L30.5729 51.8174C30.3841 52.2822 29.912 52.6075 29.3927 52.6075C28.4957 52.6539 27.5515 52.6539 26.6545 52.6075C26.1352 52.561 25.6631 52.2822 25.4743 51.8174L24.4829 49.6797C24.294 49.3079 23.9636 49.0291 23.5387 48.9361C22.028 48.6108 20.5645 48.1461 19.1482 47.5419C18.9594 47.449 18.7705 47.449 18.5817 47.449C18.3456 47.449 18.1096 47.4954 17.9208 47.6349L15.8435 48.7967C15.4186 49.029 14.8521 49.029 14.4272 48.7502C14.0496 48.5178 13.6719 48.239 13.2942 48.0066C12.9165 47.7278 12.5389 47.449 12.2084 47.1701C11.8307 46.8448 11.6419 46.3336 11.7363 45.8224L12.2084 43.4988C12.3028 43.0805 12.1612 42.6622 11.8779 42.3369L11.7835 42.244C10.8393 41.1751 9.98955 40.0133 9.23419 38.805L9.18698 38.712C8.95094 38.3403 8.57326 38.1079 8.14837 38.0614L5.78789 37.7826C5.26859 37.7361 4.8437 37.4108 4.65486 36.9461C4.51324 36.5278 4.3244 36.1096 4.18277 35.6913C4.04114 35.273 3.89951 34.8548 3.80509 34.39C3.66346 33.9253 3.8523 33.3676 4.22998 33.0423L5.97673 31.4622C6.3072 31.1834 6.44883 30.7652 6.40162 30.3469V30.2075C6.35441 29.5104 6.3072 28.7668 6.3072 28.0697C6.3072 27.3726 6.35441 26.629 6.40162 25.932V25.7925C6.44883 25.3743 6.25999 24.956 5.97673 24.6307L4.22998 23.0506C3.8523 22.7253 3.71067 22.1676 3.80509 21.7029C3.89951 21.2846 4.04114 20.8199 4.18277 20.4017C4.3244 19.9834 4.46603 19.5651 4.65486 19.1469C4.8437 18.6822 5.26859 18.3568 5.78789 18.3104L8.14837 18.0315C8.57326 17.9851 8.95094 17.7527 9.18698 17.3809L9.23419 17.2415C9.94234 16.0332 10.7921 14.8714 11.7835 13.8025L11.8779 13.7095C12.1612 13.3842 12.3028 12.966 12.2084 12.5477L11.7363 10.2241C11.6419 9.71286 11.8307 9.20166 12.2084 8.92282C12.5389 8.64398 12.9165 8.36515 13.2942 8.08631C13.6719 7.80747 14.0496 7.5751 14.4272 7.34274C14.8521 7.0639 15.4186 7.0639 15.8435 7.29627L17.9208 8.45809C18.2984 8.69046 18.7705 8.69046 19.1482 8.50456C20.5645 7.90041 22.028 7.43569 23.5387 7.11037C23.9636 7.01743 24.3413 6.73859 24.4829 6.32033L25.4743 4.18257C25.6631 3.71784 26.1352 3.39253 26.6545 3.39253C27.5515 3.34606 28.4957 3.34606 29.3927 3.39253C29.912 3.439 30.3841 3.71784 30.5729 4.18257L31.5643 6.32033C31.7532 6.69212 32.0836 7.01743 32.5085 7.11037C34.0192 7.43569 35.4827 7.90041 36.899 8.50456C37.0878 8.59751 37.2767 8.59751 37.4655 8.59751C37.7016 8.59751 37.9376 8.55104 38.1264 8.41162L40.2037 7.24979C40.6286 7.01743 41.1951 7.01743 41.62 7.29627C41.9976 7.52863 42.3753 7.80747 42.753 8.03983C43.1307 8.31867 43.5083 8.59751 43.8388 8.87635C44.2165 9.20166 44.4053 9.71286 44.3109 10.1776L43.8388 12.5012C43.7444 12.9195 43.886 13.3378 44.1693 13.6631L44.2637 13.756C45.2079 14.8249 46.0577 15.9867 46.813 17.195L46.8602 17.3344C47.0963 17.7062 47.4739 17.9386 47.8988 17.9851L50.2593 18.2639C50.7786 18.3104 50.8112 18.5353 51 19C51.1416 19.4183 51.3584 20.0817 51.5 20.5C51.6416 20.9183 51.9056 21.0353 52 21.5C52.1416 22.0112 52.2421 22.6788 51.8644 23.0042L50.1177 24.5842C49.7872 24.8631 49.6456 25.2813 49.6928 25.7461V25.8855Z" fill="#FFBC00"/>
<path d="M23 38H20C19.4696 38 18.9609 37.7893 18.5858 37.4142C18.2107 37.0391 18 36.5304 18 36V29C18 28.4696 18.2107 27.9609 18.5858 27.5858C18.9609 27.2107 19.4696 27 20 27H23M30 25V21C30 20.2044 29.6839 19.4413 29.1213 18.8787C28.5587 18.3161 27.7956 18 27 18L23 27V38H34.28C34.7623 38.0055 35.2304 37.8364 35.5979 37.524C35.9654 37.2116 36.2077 36.7769 36.28 36.3L37.66 27.3C37.7035 27.0134 37.6842 26.7207 37.6033 26.4423C37.5225 26.1638 37.3821 25.9063 37.1919 25.6875C37.0016 25.4687 36.7661 25.2939 36.5016 25.1752C36.2371 25.0565 35.9499 24.9967 35.66 25H30Z" stroke="white" stroke-width="2" stroke-linecap="round" stroke-linejoin="round"/>
</svg>
